<?xml version="1.0" encoding="UTF-8"?>
<svg version="1.1" xmlns="http://www.w3.org/2000/svg" width="1000" height="1000">
<path d="M0 0 C13.77439953 0.03141443 27.49481698 1.73722157 39.3125 9.1875 C39.3125 9.8475 39.3125 10.5075 39.3125 11.1875 C40.034375 11.249375 40.75625 11.31125 41.5 11.375 C45.2042339 12.44511202 46.70695425 14.38653832 49.3125 17.1875 C50.116875 17.80625 50.92125 18.425 51.75 19.0625 C54.41983871 21.27651259 56.50106599 23.63145438 58.6875 26.30859375 C60.36709697 28.32329072 60.36709697 28.32329072 62.7421875 30.41796875 C65.81353205 33.72736584 67.54783383 36.99934429 69.4375 41.0625 C69.93830078 42.05636719 69.93830078 42.05636719 70.44921875 43.0703125 C77.80012649 58.63694066 76.70703408 75.65563815 76.58386397 92.43569541 C76.5607001 96.07777213 76.55580469 99.71987719 76.54902649 103.36201477 C76.53533478 109.59285966 76.51182219 115.82359749 76.48141479 122.05438232 C76.4344026 131.78574106 76.40945401 141.51708468 76.39086914 151.24853516 C76.38854662 152.46172833 76.38854662 152.46172833 76.38617718 153.69943047 C76.3784677 157.79029404 76.3711752 161.88115815 76.36418724 165.97202301 C76.35852346 169.25402244 76.35213937 172.53601925 76.34511757 175.81801605 C76.28136754 205.80321807 76.40900873 235.78265153 76.7168808 265.76661301 C76.75001965 269.06445543 76.78055661 272.36231268 76.81036377 275.66018677 C76.85680971 280.75664314 76.90859846 285.8530123 76.96556664 290.9493618 C76.98567798 292.78928306 77.0043708 294.62922046 77.02153969 296.46917152 C77.04529917 298.94030667 77.07526044 301.41128293 77.10717773 303.88232422 C77.11293383 304.6030137 77.11868992 305.32370317 77.12462044 306.06623173 C77.13374265 309.75094942 77.13374265 309.75094942 78.3125 313.1875 C78.44448906 314.93562173 78.54305969 316.68631855 78.625 318.4375 C79.2989929 327.19940768 81.41130435 335.86824262 85.5 343.6875 C87.3125 347.1875 87.3125 347.1875 87.8125 350.5625 C87.9775 351.42875 88.1425 352.295 88.3125 353.1875 C90.26413118 354.62387698 90.26413118 354.62387698 92.3125 355.1875 C92.3125 356.1775 92.3125 357.1675 92.3125 358.1875 C92.9725 358.5175 93.6325 358.8475 94.3125 359.1875 C94.3125 359.8475 94.3125 360.5075 94.3125 361.1875 C94.93125 361.27 95.55 361.3525 96.1875 361.4375 C99.00890174 362.43328885 99.03177958 363.55072266 100.3125 366.1875 C101.94510714 367.56232707 103.61475062 368.89397667 105.3125 370.1875 C105.993125 370.909375 106.67375 371.63125 107.375 372.375 C109.41004283 374.27874975 110.59398409 374.79914058 113.3125 375.1875 C113.3125 375.8475 113.3125 376.5075 113.3125 377.1875 C114.6325 377.1875 115.9525 377.1875 117.3125 377.1875 C117.3125 377.8475 117.3125 378.5075 117.3125 379.1875 C119.9525 379.8475 122.5925 380.5075 125.3125 381.1875 C125.3125 381.8475 125.3125 382.5075 125.3125 383.1875 C127.0759375 383.0946875 127.0759375 383.0946875 128.875 383 C133.25341734 382.97683377 136.31653568 384.41151586 140.3125 386.1875 C143.60535101 386.44019417 143.60535101 386.44019417 146.3125 386.1875 C146.3125 386.8475 146.3125 387.5075 146.3125 388.1875 C147.3025 387.8575 148.2925 387.5275 149.3125 387.1875 C152.25258394 387.00465174 155.18229452 386.86308163 158.125 386.75 C169.17899994 386.23576284 180.05225162 385.66205051 190.3125 381.1875 C191.12332031 380.90003906 191.93414063 380.61257813 192.76953125 380.31640625 C197.96426152 378.43944974 201.74822128 376.3556883 205.77734375 372.57421875 C207.76665204 370.77726088 210.00910679 369.54243718 212.3125 368.1875 C212.6425 367.5275 212.9725 366.8675 213.3125 366.1875 C213.9725 366.1875 214.6325 366.1875 215.3125 366.1875 C215.6425 365.1975 215.9725 364.2075 216.3125 363.1875 C215.43046402 363.19194122 214.54842804 363.19638245 213.6396637 363.20095825 C205.29842536 363.24115052 196.95721989 363.27154294 188.61590672 363.29112434 C184.32828682 363.30152998 180.04074741 363.3156299 175.75317383 363.33837891 C171.60994114 363.36022273 167.46678554 363.37209281 163.32349968 363.37725449 C161.74837978 363.38092963 160.17326375 363.38810591 158.59817696 363.39896011 C141.83480283 363.50981086 127.88543532 361.14968971 115.3125 349.1875 C110.83642975 344.22328161 106.3125 339.17483641 106.3125 332.1875 C105.6525 332.1875 104.9925 332.1875 104.3125 332.1875 C103.82887304 330.02182456 103.35082683 327.85490259 102.875 325.6875 C102.60816406 324.4809375 102.34132813 323.274375 102.06640625 322.03125 C100.56365216 314.36954005 100.16367868 307.05103087 100.16723633 299.2644043 C100.16387772 298.19825897 100.1605191 297.13211365 100.15705872 296.03366089 C100.14759799 292.52633483 100.14560808 289.01905676 100.14453125 285.51171875 C100.14131537 283.06085694 100.13795105 280.60999532 100.13444519 278.15913391 C100.12846618 273.02739009 100.12660404 267.89566308 100.12719727 262.76391602 C100.12729884 256.20731812 100.11364621 249.65082863 100.09642506 243.0942564 C100.0852748 238.03344737 100.08327899 232.97266431 100.08380699 227.91184425 C100.08263146 225.49547769 100.07823378 223.07911036 100.07047462 220.66275597 C100.06061328 217.27468773 100.06357698 213.88685174 100.06958008 210.4987793 C100.06396057 209.51296371 100.05834106 208.52714813 100.05255127 207.51145935 C100.10866173 194.96992852 102.30074961 181.88084522 110.5 171.9375 C113.3125 169.1875 113.3125 169.1875 115.3125 169.1875 C115.3125 168.5275 115.3125 167.8675 115.3125 167.1875 C120.64583333 164.52083333 125.97916667 161.85416667 131.3125 159.1875 C130.51553711 159.19797363 129.71857422 159.20844727 128.89746094 159.21923828 C125.28583938 159.26081772 121.67426821 159.28683261 118.0625 159.3125 C116.80824219 159.32925781 115.55398438 159.34601563 114.26171875 159.36328125 C113.05644531 159.36972656 111.85117187 159.37617188 110.609375 159.3828125 C108.94406738 159.39852295 108.94406738 159.39852295 107.24511719 159.41455078 C104.37299058 159.19218334 102.74026265 158.68031575 100.3125 157.1875 C101.57431349 152.13303569 103.17420244 150.02820083 107.375 147 C111.30111332 144.32013411 111.30111332 144.32013411 113.3125 140.1875 C114.76047357 138.93697737 116.21419466 137.69171942 117.7109375 136.5 C119.50144298 135.07670343 119.50144298 135.07670343 121.6875 132.8125 C123.79533426 130.70466574 125.91902931 128.79883764 128.1875 126.875 C131.71650104 123.83115353 134.70314239 120.53426861 137.70703125 116.98046875 C139.69757814 114.75744923 141.94696465 112.9964388 144.3125 111.1875 C144.6425 110.5275 144.9725 109.8675 145.3125 109.1875 C145.9725 109.1875 146.6325 109.1875 147.3125 109.1875 C147.3125 108.5275 147.3125 107.8675 147.3125 107.1875 C147.9725 107.1875 148.6325 107.1875 149.3125 107.1875 C149.3125 106.5275 149.3125 105.8675 149.3125 105.1875 C149.9725 105.1875 150.6325 105.1875 151.3125 105.1875 C151.3125 104.5275 151.3125 103.8675 151.3125 103.1875 C152.7734375 101.6796875 152.7734375 101.6796875 154.6875 100.0625 C155.31398438 99.52367187 155.94046875 98.98484375 156.5859375 98.4296875 C158.3125 97.1875 158.3125 97.1875 160.3125 97.1875 C160.68375 96.32125 160.68375 96.32125 161.0625 95.4375 C162.49549988 92.85810021 164.09674676 91.12628408 166.3125 89.1875 C166.9725 89.1875 167.6325 89.1875 168.3125 89.1875 C168.55871094 88.59195313 168.80492187 87.99640625 169.05859375 87.3828125 C170.52212497 84.82049305 171.96908427 83.75130857 174.375 82.0625 C177.92131568 79.41548925 180.7992367 76.66392624 183.6875 73.3125 C187.65533549 68.73904751 191.96459901 65.00976788 196.734375 61.29296875 C200.16837454 58.48853579 203.18652846 55.35408775 206.26171875 52.16796875 C206.83535156 51.57628906 207.40898438 50.98460937 208 50.375 C208.87205078 49.46814453 208.87205078 49.46814453 209.76171875 48.54296875 C211.3125 47.1875 211.3125 47.1875 213.3125 47.1875 C213.68375 46.32125 213.68375 46.32125 214.0625 45.4375 C215.49549988 42.85810021 217.09674676 41.12628408 219.3125 39.1875 C219.9725 39.1875 220.6325 39.1875 221.3125 39.1875 C221.3125 38.5275 221.3125 37.8675 221.3125 37.1875 C222.3025 37.1875 223.2925 37.1875 224.3125 37.1875 C224.68375 36.259375 224.68375 36.259375 225.0625 35.3125 C226.54020762 32.80039704 227.75205177 32.42642656 230.3125 31.1875 C230.6425 30.1975 230.9725 29.2075 231.3125 28.1875 C232.94756539 26.73059639 234.64582325 25.34385814 236.375 24 C240.82480964 20.47024203 244.81306258 16.79811737 248.65625 12.62109375 C250.3125 11.1875 250.3125 11.1875 253.3125 11.1875 C253.3125 10.5275 253.3125 9.8675 253.3125 9.1875 C262.28987823 6.19504059 270.52826795 6.49025606 279.3125 10.1875 C285.11739344 14.23593122 289.22729418 20.33166378 290.7734375 27.25 C291.01774033 28.88748926 291.17500881 30.53760572 291.3125 32.1875 C292.3025 32.5175 293.2925 32.8475 294.3125 33.1875 C295.40554729 35.50201271 296.32050984 37.72739758 297.1875 40.125 C299.26243568 45.59758608 301.52189958 50.83110659 304.21484375 56.03515625 C306.22294462 59.97274905 307.91408335 63.99225004 309.3125 68.1875 C310.18261719 67.84525391 310.18261719 67.84525391 311.0703125 67.49609375 C316.00683943 65.67951701 319.08963249 64.96512675 324.3125 66.1875 C325.570625 66.105 326.82875 66.0225 328.125 65.9375 C333.92452853 65.87083875 338.66692383 68.79794733 342.88671875 72.609375 C349.04103831 79.48447072 349.85907699 86.74779464 350.4453125 95.5625 C350.52748016 96.6457959 350.60964783 97.7290918 350.69430542 98.84521484 C350.95354587 102.29190555 351.19610271 105.73951795 351.4375 109.1875 C351.68947333 112.63515036 351.94488322 116.08252359 352.20211792 119.52978516 C352.36065783 121.66980537 352.51555927 123.81009919 352.66629028 125.95068359 C353.03455821 131.07173309 353.54728627 136.10726317 354.3125 141.1875 C354.51256152 143.93864906 354.54191903 146.67965051 354.5625 149.4375 C354.5934375 150.49710937 354.5934375 150.49710937 354.625 151.578125 C354.66369868 156.68635132 354.66369868 156.68635132 352.921875 159.171875 C351.3125 160.1875 351.3125 160.1875 349.3125 160.1875 C349.3125 160.8475 349.3125 161.5075 349.3125 162.1875 C349.9725 162.1875 350.6325 162.1875 351.3125 162.1875 C351.3125 162.8475 351.3125 163.5075 351.3125 164.1875 C353.6225 164.5175 355.9325 164.8475 358.3125 165.1875 C358.3125 166.1775 358.3125 167.1675 358.3125 168.1875 C359.3025 168.5175 360.2925 168.8475 361.3125 169.1875 C364.93456046 172.29212326 366.89815093 174.35342748 367.3125 179.1875 C367.9725 179.1875 368.6325 179.1875 369.3125 179.1875 C373.5301529 187.70445571 375.02466487 194.62962581 374.8359375 204.08666992 C374.82963066 205.93100868 374.82963066 205.93100868 374.82319641 207.81260681 C374.80635686 211.15306353 374.76700671 214.49170934 374.7163353 217.83172011 C374.66750541 221.36458798 374.64585091 224.89764133 374.62036133 228.43074036 C374.57345523 234.37459708 374.50677436 240.31796961 374.42724609 246.26147461 C374.33639616 253.06282616 374.27269549 259.86398501 374.22494888 266.66576689 C374.17820102 273.27705986 374.11516746 279.88809761 374.04400635 286.4991703 C374.01414297 289.27794833 373.98891846 292.05670468 373.9677124 294.83556175 C373.71243009 326.29318408 369.86033228 354.29329142 359.1484375 383.84008789 C358.49523294 385.67436414 357.89037213 387.52587441 357.3046875 389.3828125 C356.01104054 393.03965706 354.32249371 396.42313601 352.5625 399.875 C352.20760498 400.57544434 351.85270996 401.27588867 351.48706055 401.99755859 C350.43526328 404.06422305 349.37544149 406.12654899 348.3125 408.1875 C347.75691406 409.26902344 347.20132812 410.35054687 346.62890625 411.46484375 C344.54953165 415.40215305 342.54349391 419.12114842 339.625 422.5 C337.24349759 425.26769199 335.90972588 427.92360363 334.3125 431.1875 C332.98868483 432.86173683 331.65673339 434.52961215 330.3125 436.1875 C329.9825 437.1775 329.6525 438.1675 329.3125 439.1875 C327.68066532 440.88828544 326.00748905 442.54964541 324.3125 444.1875 C322.45343922 446.16408761 320.63445628 448.17671351 318.8125 450.1875 C315.4009003 453.95268286 311.9245188 457.61100925 308.3125 461.1875 C307.70148438 461.82171875 307.09046875 462.4559375 306.4609375 463.109375 C299.07759767 470.72039491 290.98928572 477.37690963 281.9921875 482.99609375 C280.16201728 484.09612514 280.16201728 484.09612514 279.3125 486.1875 C277.65628888 486.87973332 275.98759851 487.54231227 274.3125 488.1875 C272.68975482 489.11402661 271.08559602 490.07374384 269.5 491.0625 C257.81709559 498.1875 257.81709559 498.1875 254.3125 498.1875 C254.3125 498.8475 254.3125 499.5075 254.3125 500.1875 C253.29929687 500.58582031 252.28609375 500.98414063 251.2421875 501.39453125 C249.89056929 501.92954679 248.53900991 502.46471096 247.1875 503 C246.18976563 503.39155273 246.18976563 503.39155273 245.171875 503.79101562 C240.43549655 505.67163648 235.89462342 507.79616005 231.40454102 510.21557617 C229.27430565 511.20524439 227.38147492 511.7099347 225.08203125 512.1640625 C222.10172197 512.78721256 219.18257988 513.47606116 216.26171875 514.3359375 C170.53878972 527.66571808 115.31243953 526.52168873 71.00390625 508.28515625 C67.99872236 507.05952973 64.97110363 505.90342021 61.9375 504.75 C55.67601921 502.35261972 49.48623991 499.80160609 43.3125 497.1875 C43.3125 496.5275 43.3125 495.8675 43.3125 495.1875 C42.136875 494.878125 42.136875 494.878125 40.9375 494.5625 C33.3648952 491.69013266 26.83079891 486.91646195 20.3125 482.1875 C19.44625 481.6925 18.58 481.1975 17.6875 480.6875 C15.3125 479.1875 15.3125 479.1875 12.9375 476.75 C9.91204667 473.79658127 7.03484092 472.15815108 3.3125 470.1875 C3.3125 469.5275 3.3125 468.8675 3.3125 468.1875 C2.3225 468.1875 1.3325 468.1875 0.3125 468.1875 C0.3125 467.5275 0.3125 466.8675 0.3125 466.1875 C-0.5228125 465.8471875 -0.5228125 465.8471875 -1.375 465.5 C-4.34384417 463.81498034 -6.29396884 461.62856228 -8.6875 459.1875 C-9.71407889 458.18018088 -10.74280872 457.17505014 -11.7734375 456.171875 C-24.7423847 443.45664686 -24.7423847 443.45664686 -28.6875 437.1875 C-28.6875 436.5275 -28.6875 435.8675 -28.6875 435.1875 C-29.3475 435.1875 -30.0075 435.1875 -30.6875 435.1875 C-31.6490531 433.81385272 -32.59905596 432.43080553 -33.4921875 431.01171875 C-34.75444641 429.08533015 -36.13770543 427.30896692 -37.5625 425.5 C-40.60339281 421.50690843 -42.91027471 417.26112338 -45.1953125 412.80078125 C-46.62950567 410.11472041 -46.62950567 410.11472041 -48.7109375 407.74609375 C-50.91206667 404.89680599 -51.97812315 402.3204866 -53.1875 398.9375 C-54.57218237 395.17486766 -55.95482922 391.457769 -57.625 387.8125 C-66.33394823 368.49062295 -71.03318486 349.21700669 -73.6875 328.1875 C-73.81766258 327.16740845 -73.81766258 327.16740845 -73.95045471 326.12670898 C-75.06556775 315.94857742 -74.92001425 305.69474449 -75.00390625 295.46875 C-75.02455644 293.32629063 -75.04555447 291.18383459 -75.06687927 289.04138184 C-75.11070911 284.54616309 -75.1516137 280.05093095 -75.19018555 275.55566406 C-75.23871917 269.90470562 -75.29246782 264.25381353 -75.34814835 258.60292149 C-75.75313351 217.38160715 -75.71726265 176.17855214 -75.39996052 134.95639229 C-75.34961737 128.4054386 -75.30312098 121.85450778 -75.265625 115.3034668 C-75.22866689 108.85693375 -75.18235966 102.41053054 -75.12943649 95.96410942 C-75.1110505 93.53743154 -75.09588579 91.11072683 -75.08415604 88.68400764 C-75.06717873 85.30621067 -75.03814225 81.92871109 -75.00634766 78.55102539 C-75.00418747 77.57382034 -75.00202728 76.5966153 -74.99980164 75.58979797 C-74.81667206 60.27563866 -71.40571722 45.33527153 -61.6875 33.1875 C-61.336875 32.465625 -60.98625 31.74375 -60.625 31 C-59.36847106 28.57071071 -57.73522554 26.97925985 -55.6875 25.1875 C-55.0275 25.1875 -54.3675 25.1875 -53.6875 25.1875 C-53.46707031 24.61644531 -53.24664062 24.04539062 -53.01953125 23.45703125 C-47.16804022 13.48718876 -30.41327405 5.87238301 -19.89453125 2.671875 C-16.50612056 1.9282238 -13.11421417 1.62256481 -9.65625 1.3984375 C-6.27710431 1.03638618 -3.87914668 0.01993395 0 0 Z M282.375 258.1875 C278.49671783 263.8286377 277.55772149 268.41771738 278.3125 275.1875 C279.52531031 279.71119392 281.60615989 283.26735325 285.3125 286.1875 C286.01375 286.3525 286.715 286.5175 287.4375 286.6875 C288.05625 286.8525 288.675 287.0175 289.3125 287.1875 C289.539375 287.84105469 289.76625 288.49460937 290 289.16796875 C290.433125 289.83441406 290.86625 290.50085938 291.3125 291.1875 C294.51363703 291.93528409 294.51363703 291.93528409 298.1875 292 C299.42242188 292.06832031 300.65734375 292.13664062 301.9296875 292.20703125 C304.67532388 292.19117885 306.73325849 292.03644633 309.3125 291.1875 C309.3125 290.5275 309.3125 289.8675 309.3125 289.1875 C310.4571875 289.0328125 310.4571875 289.0328125 311.625 288.875 C314.58645361 288.11741884 315.41981431 287.51034152 317.3125 285.1875 C317.828125 284.61 318.34375 284.0325 318.875 283.4375 C322.07568431 278.42773325 322.83409523 273.02936656 322.3125 267.1875 C320.01718941 260.30156823 316.13947424 254.31030108 309.5234375 250.88671875 C299.30740213 247.65585244 289.43892358 250.28409565 282.375 258.1875 Z " fill="#23AE8C" transform="translate(350.6875,238.8125)"/>
<path d="M0 0 C5.80489344 4.04843122 9.91479418 10.14416378 11.4609375 17.0625 C11.70524033 18.69998926 11.86250881 20.35010572 12 22 C12.99 22.33 13.98 22.66 15 23 C16.09304729 25.31451271 17.00800984 27.53989758 17.875 29.9375 C19.94993568 35.41008608 22.20939958 40.64360659 24.90234375 45.84765625 C26.91044462 49.78524905 28.60158335 53.80475004 30 58 C30.87011719 57.65775391 30.87011719 57.65775391 31.7578125 57.30859375 C36.69433943 55.49201701 39.77713249 54.77762675 45 56 C46.258125 55.9175 47.51625 55.835 48.8125 55.75 C54.61202853 55.68333875 59.35442383 58.61044733 63.57421875 62.421875 C69.72853831 69.29697072 70.54657699 76.56029464 71.1328125 85.375 C71.21498016 86.4582959 71.29714783 87.5415918 71.38180542 88.65771484 C71.64104587 92.10440555 71.88360271 95.55201795 72.125 99 C72.37697333 102.44765036 72.63238322 105.89502359 72.88961792 109.34228516 C73.04815783 111.48230537 73.20305927 113.62259919 73.35379028 115.76318359 C73.72203008 120.88384192 74.22709208 125.92106552 75 131 C75.23934556 133.73005425 75.31841149 136.44810153 75.375 139.1875 C75.43107422 140.23454102 75.43107422 140.23454102 75.48828125 141.30273438 C75.54809813 144.79537569 75.38468864 146.57565499 73.00551319 149.20009232 C69.10297653 151.53719925 65.80117531 151.52810293 61.38835144 151.4430542 C60.52244977 151.44238835 59.6565481 151.44172249 58.76440698 151.44103646 C55.86358382 151.43391499 52.96383366 151.3980428 50.06323242 151.36230469 C47.98371203 151.35131417 45.90418163 151.34209563 43.824646 151.33451843 C38.17820155 151.30891363 32.53221791 151.25847969 26.88599181 151.20364666 C20.98571053 151.15054922 15.08531377 151.12020378 9.18489075 151.08746338 C-1.98883279 151.02199567 -13.16230092 150.93601347 -24.33582276 150.84269357 C-37.05627637 150.73745029 -49.77684564 150.65502657 -62.49747622 150.5745368 C-88.66519238 150.40844846 -114.83263199 150.21364711 -141 150 C-141 149.34 -141 148.68 -141 148 C-142.51352051 148.0611499 -142.51352051 148.0611499 -144.05761719 148.12353516 C-147.80693374 148.27218473 -151.55664712 148.4067539 -155.30664062 148.53710938 C-156.92852784 148.59545064 -158.55028304 148.65759217 -160.171875 148.72363281 C-162.5049638 148.81798567 -164.8381884 148.89858886 -167.171875 148.9765625 C-167.89493835 149.00875885 -168.61800171 149.0409552 -169.36297607 149.0741272 C-173.10665109 149.18511534 -175.82747337 149.10305499 -179 147 C-177.73818651 141.94553569 -176.13829756 139.84070083 -171.9375 136.8125 C-168.01138668 134.13263411 -168.01138668 134.13263411 -166 130 C-164.55202643 128.74947737 -163.09830534 127.50421942 -161.6015625 126.3125 C-159.81105702 124.88920343 -159.81105702 124.88920343 -157.625 122.625 C-155.51716574 120.51716574 -153.39347069 118.61133764 -151.125 116.6875 C-147.59599896 113.64365353 -144.60935761 110.34676861 -141.60546875 106.79296875 C-139.61492186 104.56994923 -137.36553535 102.8089388 -135 101 C-134.67 100.34 -134.34 99.68 -134 99 C-133.34 99 -132.68 99 -132 99 C-132 98.34 -132 97.68 -132 97 C-131.34 97 -130.68 97 -130 97 C-130 96.34 -130 95.68 -130 95 C-129.34 95 -128.68 95 -128 95 C-128 94.34 -128 93.68 -128 93 C-126.5390625 91.4921875 -126.5390625 91.4921875 -124.625 89.875 C-123.99851562 89.33617187 -123.37203125 88.79734375 -122.7265625 88.2421875 C-121 87 -121 87 -119 87 C-118.7525 86.4225 -118.505 85.845 -118.25 85.25 C-116.81700012 82.67060021 -115.21575324 80.93878408 -113 79 C-112.34 79 -111.68 79 -111 79 C-110.75378906 78.40445313 -110.50757813 77.80890625 -110.25390625 77.1953125 C-108.79037503 74.63299305 -107.34341573 73.56380857 -104.9375 71.875 C-101.39118432 69.22798925 -98.5132633 66.47642624 -95.625 63.125 C-91.65716451 58.55154751 -87.34790099 54.82226788 -82.578125 51.10546875 C-79.14412546 48.30103579 -76.12597154 45.16658775 -73.05078125 41.98046875 C-72.47714844 41.38878906 -71.90351562 40.79710937 -71.3125 40.1875 C-70.73113281 39.58292969 -70.14976562 38.97835937 -69.55078125 38.35546875 C-68 37 -68 37 -66 37 C-65.62875 36.13375 -65.62875 36.13375 -65.25 35.25 C-63.81700012 32.67060021 -62.21575324 30.93878408 -60 29 C-59.34 29 -58.68 29 -58 29 C-58 28.34 -58 27.68 -58 27 C-57.01 27 -56.02 27 -55 27 C-54.7525 26.38125 -54.505 25.7625 -54.25 25.125 C-52.77229238 22.61289704 -51.56044823 22.23892656 -49 21 C-48.67 20.01 -48.34 19.02 -48 18 C-46.36493461 16.54309639 -44.66667675 15.15635814 -42.9375 13.8125 C-38.48769036 10.28274203 -34.49943742 6.61061737 -30.65625 2.43359375 C-29 1 -29 1 -26 1 C-26 0.34 -26 -0.32 -26 -1 C-17.02262177 -3.99245941 -8.78423205 -3.69724394 0 0 Z " fill="#7DCC9D" transform="translate(630,249)"/>
<path d="M0 0 C1.5 1.375 1.5 1.375 3 3 C3 3.66 3 4.32 3 5 C3.58007812 4.77183594 4.16015625 4.54367187 4.7578125 4.30859375 C9.69433943 2.49201701 12.77713249 1.77762675 18 3 C19.8871875 2.87625 19.8871875 2.87625 21.8125 2.75 C27.61202853 2.68333875 32.35442383 5.61044733 36.57421875 9.421875 C42.72853831 16.29697072 43.54657699 23.56029464 44.1328125 32.375 C44.21498016 33.4582959 44.29714783 34.5415918 44.38180542 35.65771484 C44.64104587 39.10440555 44.88360271 42.55201795 45.125 46 C45.37697333 49.44765036 45.63238322 52.89502359 45.88961792 56.34228516 C46.04815783 58.48230537 46.20305927 60.62259919 46.35379028 62.76318359 C46.64764973 66.84952577 46.94238832 70.90976123 47.5480957 74.96313477 C48.09694883 78.65151082 48.09547905 82.21086708 48.0625 85.9375 C48.05798828 86.62134766 48.05347656 87.30519531 48.04882812 88.00976562 C48.0371956 89.67321604 48.01926694 91.3366205 48 93 C44.96217492 94.51891254 41.80935187 94.13702099 38.47715759 94.12698364 C37.29958959 94.12932363 37.29958959 94.12932363 36.09823233 94.13171089 C33.45340888 94.13571682 30.80864229 94.13253282 28.16381836 94.12939453 C26.27354397 94.13074874 24.38326984 94.13252878 22.49299622 94.13470459 C17.34857692 94.13927626 12.20417761 94.13749053 7.05975795 94.1343255 C1.68701926 94.13180091 -3.68571767 94.13413969 -9.05845642 94.13571167 C-18.08137317 94.13753292 -27.10428175 94.13512806 -36.12719727 94.13037109 C-46.57456653 94.12492691 -57.02191628 94.12669244 -67.46928507 94.1321975 C-76.42383335 94.13672794 -85.37837573 94.13737957 -94.33292478 94.13475883 C-99.68788087 94.13319589 -105.04282777 94.13300279 -110.39778328 94.13629532 C-115.42999884 94.13917309 -120.46218912 94.13720008 -125.49440193 94.13140106 C-127.3468115 94.13007303 -129.19922318 94.13046831 -131.05163193 94.13266373 C-133.56916426 94.1353735 -136.08661423 94.13199627 -138.60414124 94.12698364 C-139.34692623 94.12921436 -140.08971122 94.13144509 -140.85500485 94.13374341 C-145.88585004 94.11414996 -145.88585004 94.11414996 -147 93 C-148.155 92.855625 -149.31 92.71125 -150.5 92.5625 C-151.655 92.376875 -152.81 92.19125 -154 92 C-154.33 91.34 -154.66 90.68 -155 90 C-154.34 90 -153.68 90 -153 90 C-153 89.01 -153 88.02 -153 87 C-147.25 84 -147.25 84 -145 84 C-145 83.34 -145 82.68 -145 82 C-142.19433089 79.95951337 -139.79115962 78.94137814 -136.4375 78 C-133.07949849 77.02312683 -131.71463936 76.04610877 -129 74 C-127.37422077 73.20746655 -125.72582929 72.46035416 -124.0625 71.75 C-119.75831109 69.84721609 -115.62654731 67.76246933 -111.5 65.5 C-106.53338587 62.78286545 -101.51959809 60.3251763 -96.33984375 58.04296875 C-94.00999139 57.03838649 -94.00999139 57.03838649 -91.87890625 55.86328125 C-90 55 -90 55 -87 55 C-87 54.34 -87 53.68 -87 53 C-85.64843571 52.22461277 -84.29357915 51.45496383 -82.9375 50.6875 C-82.18339844 50.25824219 -81.42929687 49.82898438 -80.65234375 49.38671875 C-78.11372826 48.05946028 -75.52942795 46.95397514 -72.88989258 45.84594727 C-69.44793621 44.3052705 -66.17980757 42.43655506 -62.875 40.625 C-56.81946961 37.35657217 -50.80739711 34.65675925 -44.328125 32.3125 C-38.33848835 29.95038977 -32.66117138 26.9395264 -26.94091797 23.99560547 C-24.85706827 22.92668232 -22.76816339 21.86852945 -20.67578125 20.81640625 C-20.03165283 20.4922876 -19.38752441 20.16816895 -18.72387695 19.83422852 C-16.52747114 18.7713311 -14.26514085 17.90605634 -12 17 C-9.94441663 15.98845799 -7.90346516 14.95217562 -5.8671875 13.90234375 C-4 13 -4 13 -1 12 C-1.350625 11.2575 -1.70125 10.515 -2.0625 9.75 C-3.06534401 6.80832424 -3.12878423 5.82196058 -2 3 C-1.34 2.01 -0.68 1.02 0 0 Z " fill="#F4D680" transform="translate(657,302)"/>
<path d="M0 0 C1.65 0 3.3 0 5 0 C0.78809533 5.08938482 -4.78803418 6.51633852 -11 8 C-11 8.66 -11 9.32 -11 10 C-16.75 13 -16.75 13 -19 13 C-19.33 14.32 -19.66 15.64 -20 17 C-18.865625 17.144375 -17.73125 17.28875 -16.5625 17.4375 C-13 18 -13 18 -12 19 C-9.49586483 19.09773112 -7.01933809 19.12995681 -4.51475525 19.12025452 C-3.32515987 19.12153615 -3.32515987 19.12153615 -2.11153227 19.12284368 C0.56637396 19.1245009 3.24421861 19.11897319 5.92211914 19.11352539 C7.83357237 19.11324354 9.74502571 19.1134012 11.65647888 19.1139679 C16.86287459 19.11425597 22.06924748 19.10835761 27.27563787 19.10139394 C32.71024159 19.09516208 38.14484577 19.09455674 43.57945251 19.09336853 C53.87838758 19.09025472 64.17731208 19.08204066 74.47624248 19.07201904 C86.19792757 19.06085945 97.91961315 19.05534784 109.64130223 19.05032361 C133.76087402 19.03985808 157.88043642 19.02225768 182 19 C179.17726726 22.51674017 177.72600269 23.8854759 173.19881725 24.59962177 C171.68392375 24.61322793 170.16862836 24.59918047 168.65409851 24.56330872 C167.81678171 24.56349729 166.9794649 24.56368586 166.11677486 24.56388015 C163.31245263 24.55840659 160.5098183 24.51704157 157.70581055 24.47583008 C155.69525732 24.4645571 153.68469065 24.45549704 151.67411804 24.44848633 C146.21557275 24.42317161 140.75773305 24.36685619 135.29949546 24.3050406 C129.5954354 24.24569085 123.89122366 24.21475805 118.18696594 24.18083191 C107.3850412 24.11225846 96.58349722 24.01806878 85.7818554 23.91471261 C73.48464585 23.79829051 61.18728446 23.71036874 48.88982713 23.62486041 C23.59292092 23.44832297 -1.70358294 23.23593092 -27 23 C-27.23231506 16.9655304 -27.23231506 16.9655304 -27 15 C-24.62109375 12.79296875 -24.62109375 12.79296875 -21.4375 11.1875 C-20.33921875 10.6203125 -19.2409375 10.053125 -18.109375 9.46875 C-17.08328125 8.9840625 -16.0571875 8.499375 -15 8 C-14.30390625 7.6596875 -13.6078125 7.319375 -12.890625 6.96875 C-10.0316446 5.6572911 -7.16186085 4.76688405 -4.125 4 C-3.09375 3.67 -2.0625 3.34 -1 3 C-0.67 2.01 -0.34 1.02 0 0 Z " fill="#ACCA7E" transform="translate(523,376)"/>
<path d="M0 0 C0.33 1.32 0.66 2.64 1 4 C-2.03376719 5.5168836 -5.1812366 5.14434317 -8.50938416 5.14044189 C-9.68483546 5.14489858 -9.68483546 5.14489858 -10.88403326 5.1494453 C-13.52418062 5.15815473 -16.16428275 5.15964242 -18.80444336 5.16113281 C-20.69147336 5.16575933 -22.57850243 5.17078377 -24.4655304 5.17617798 C-29.60181287 5.18931843 -34.73808226 5.19574993 -39.87437892 5.20018864 C-43.08021583 5.20311621 -46.28604913 5.20722037 -49.49188423 5.21169281 C-59.51332773 5.22537096 -69.53476303 5.23503653 -79.55621523 5.2388947 C-91.14139045 5.2433789 -102.72644788 5.26094228 -114.31158727 5.2898953 C-123.2559766 5.31147626 -132.2003327 5.32159703 -141.14474779 5.32293582 C-146.49198558 5.32398626 -151.83911269 5.32994485 -157.18632317 5.34775543 C-162.21367011 5.36417464 -167.24082245 5.36642171 -172.26818657 5.35761642 C-174.11653665 5.35684278 -175.96489694 5.36123149 -177.81322098 5.37107468 C-180.33025985 5.38369632 -182.84659924 5.37797133 -185.3636322 5.36749268 C-186.10059151 5.37554908 -186.83755082 5.38360548 -187.59684223 5.39190602 C-192.55415652 5.34340503 -192.55415652 5.34340503 -194.97727299 3.47703171 C-195.3147729 2.98961124 -195.65227282 2.50219078 -196 2 C-146.79056024 1.41573609 -97.58210835 0.89447709 -48.36872482 0.87661743 C-45.43340474 0.87499774 -42.49809237 0.87143994 -39.56277466 0.86743164 C-34.97191442 0.86164058 -30.38108755 0.86130398 -25.79022598 0.86568069 C-24.11191959 0.8666747 -22.43361142 0.86609622 -20.75530624 0.86384201 C-18.47803011 0.86131201 -16.20085271 0.86505687 -13.92358398 0.87060547 C-12.0143943 0.87179886 -12.0143943 0.87179886 -10.06663513 0.87301636 C-7 1 -7 1 -4 2 C-1.83284443 1.12516085 -1.83284443 1.12516085 0 0 Z " fill="#D2D07C" transform="translate(704,391)"/>
<path d="M0 0 C0.33 0.66 0.66 1.32 1 2 C2.01453121 1.99907821 3.02906242 1.99815641 4.07433701 1.99720669 C28.78868519 1.9749824 53.50303208 1.95856249 78.21738815 1.94818783 C90.16918036 1.94303705 102.12096595 1.93601758 114.07275391 1.92456055 C124.49296265 1.91457648 134.91316659 1.90813771 145.33337998 1.90591151 C150.84800958 1.90461072 156.36262548 1.90156495 161.87725067 1.89426994 C167.07444571 1.88745096 172.27162148 1.88539495 177.46882057 1.88689232 C179.36982389 1.88661862 181.27082789 1.88464854 183.17182732 1.88079453 C209.65951352 1.82975676 209.65951352 1.82975676 214 4 C214 4.66 214 5.32 214 6 C216.31 6.33 218.62 6.66 221 7 C222.66670026 10.52948291 223.13583456 12.28272326 222 16 C220.4221875 14.824375 220.4221875 14.824375 218.8125 13.625 C215.96158998 11.5886357 213.3324747 10.14005714 210 9 C206.99058007 7.85355431 204.70282088 6.80188059 202 5 C199.31862417 4.80646722 196.74149812 4.73045674 194.05992126 4.74603271 C193.24205865 4.74291273 192.42419603 4.73979275 191.5815497 4.73657823 C188.83155628 4.72857886 186.08178232 4.73492937 183.33178711 4.74121094 C181.36417003 4.73850196 179.39655396 4.73494155 177.42893982 4.73059082 C172.07788899 4.72145409 166.72691506 4.72501621 161.37586284 4.73134899 C155.78471715 4.73640163 150.19357819 4.73171966 144.60243225 4.72857666 C135.21305149 4.72493517 125.82370216 4.72974124 116.43432617 4.73925781 C105.5660214 4.75014587 94.69779165 4.74661496 83.82948869 4.735605 C74.51057159 4.72654112 65.19167711 4.72524234 55.87275702 4.73048234 C50.30147513 4.73360659 44.73022854 4.73399888 39.1589489 4.72740936 C33.92313802 4.72164947 28.68742426 4.72560781 23.45162392 4.73719788 C21.52545712 4.73985162 19.5992822 4.73906729 17.67311859 4.73467255 C15.05299886 4.72924377 12.43319448 4.73601846 9.81309509 4.74603271 C9.04277748 4.74157127 8.27245986 4.73710983 7.47879928 4.73251319 C3.28142307 4.62180498 3.28142307 4.62180498 0 7 C-2.625 7.625 -2.625 7.625 -5 8 C-5.33 7.34 -5.66 6.68 -6 6 C-5.34 5.34 -4.68 4.68 -4 4 C-5.32 3.67 -6.64 3.34 -8 3 C-5.4345406 0.4345406 -3.52313332 0.45953913 0 0 Z " fill="#6ABF84" transform="translate(488,397)"/>
<path d="M0 0 C1.65 0 3.3 0 5 0 C0.78809533 5.08938482 -4.78803418 6.51633852 -11 8 C-11 8.66 -11 9.32 -11 10 C-16.75 13 -16.75 13 -19 13 C-19.33 14.32 -19.66 15.64 -20 17 C-18.02 17.99 -16.04 18.98 -14 20 C-14.99 20.33 -15.98 20.66 -17 21 C-16.01232698 21.00331015 -15.02465397 21.00662029 -14.00705147 21.01003075 C9.99450052 21.09092526 33.99598794 21.18320994 57.99744987 21.28752708 C69.60424346 21.33770815 81.21102979 21.38415032 92.81787109 21.421875 C102.93111812 21.45475458 113.0443097 21.49456323 123.15749562 21.54279006 C128.51530234 21.5680953 133.87307209 21.58986457 139.2309227 21.60334396 C144.26891629 21.61612793 149.30678335 21.6381423 154.34470749 21.66738319 C156.19829444 21.67648777 158.05190178 21.68215586 159.90550995 21.68421364 C162.42729498 21.68751596 164.94871678 21.70293753 167.47042847 21.7215271 C168.21166486 21.71959237 168.95290125 21.71765763 169.71659935 21.71566427 C174.77175758 21.77175758 174.77175758 21.77175758 177 24 C109.68 23.67 42.36 23.34 -27 23 C-27 20.36 -27 17.72 -27 15 C-24.62109375 12.79296875 -24.62109375 12.79296875 -21.4375 11.1875 C-20.33921875 10.6203125 -19.2409375 10.053125 -18.109375 9.46875 C-17.08328125 8.9840625 -16.0571875 8.499375 -15 8 C-14.30390625 7.6596875 -13.6078125 7.319375 -12.890625 6.96875 C-10.0316446 5.6572911 -7.16186085 4.76688405 -4.125 4 C-3.09375 3.67 -2.0625 3.34 -1 3 C-0.67 2.01 -0.34 1.02 0 0 Z " fill="#92C67F" transform="translate(523,376)"/>
<path d="M0 0 C20.17494636 -0.02333435 40.34988999 -0.04098182 60.52484703 -0.05181217 C69.89189479 -0.05697399 79.25893418 -0.06401451 88.62597656 -0.07543945 C96.78788942 -0.08538978 104.94979621 -0.09185426 113.11171496 -0.09408849 C117.43554155 -0.09539501 121.7593508 -0.09847713 126.08317184 -0.10573006 C130.14930802 -0.11249575 134.21541963 -0.11461583 138.2815609 -0.11310768 C139.77717535 -0.11338376 141.27279059 -0.11538564 142.76840019 -0.11920547 C144.803958 -0.1241512 146.83952886 -0.12239555 148.87509155 -0.12025452 C150.01627127 -0.12117631 151.15745098 -0.1220981 152.3332119 -0.12304783 C155 0 155 0 157 1 C157 1.66 157 2.32 157 3 C159.31 3.33 161.62 3.66 164 4 C165.66670026 7.52948291 166.13583456 9.28272326 165 13 C163.4221875 11.824375 163.4221875 11.824375 161.8125 10.625 C158.96158998 8.5886357 156.3324747 7.14005714 153 6 C149.99058007 4.85355431 147.70282088 3.80188059 145 2 C142.27142657 1.68730981 142.27142657 1.68730981 139.13447571 1.7215271 C137.91029938 1.71036362 136.68612305 1.69920013 135.42485046 1.68769836 C134.06619293 1.68533334 132.70753506 1.6831577 131.34887695 1.68115234 C129.9198754 1.6718554 128.49087929 1.66168708 127.06188965 1.65071106 C123.17997126 1.62337049 119.29808923 1.60824969 115.41609979 1.59528303 C111.36013626 1.57967019 107.30424721 1.55287411 103.24833679 1.5272522 C95.56674136 1.48043163 87.88513197 1.44370342 80.20346659 1.41057932 C71.45865651 1.37238106 62.71392116 1.32296491 53.96917403 1.27259517 C35.97950402 1.16922658 17.98978842 1.07998223 0 1 C0 0.67 0 0.34 0 0 Z " fill="#41B794" transform="translate(545,400)"/>
<path d="M0 0 C0.33 1.32 0.66 2.64 1 4 C-1.97217884 5.48608942 -4.64267995 5.12260065 -7.96011353 5.12025452 C-9.04685995 5.12153615 -9.04685995 5.12153615 -10.15556085 5.12284368 C-12.59543121 5.12449739 -15.03523358 5.11897889 -17.47509766 5.11352539 C-19.21921283 5.11324347 -20.96332813 5.11340135 -22.70744324 5.1139679 C-27.45305155 5.11425568 -32.19863477 5.10836204 -36.94423723 5.10139394 C-41.89970302 5.09515721 -46.85516933 5.09455635 -51.81063843 5.09336853 C-61.19935032 5.09025616 -70.58805062 5.08204403 -79.97675741 5.07201904 C-90.66341872 5.06085499 -101.35008058 5.05534672 -112.03674626 5.05032361 C-134.02450399 5.03986135 -156.01225127 5.02226372 -178 5 C-178 4.67 -178 4.34 -178 4 C-177.21261003 3.99576806 -176.42522007 3.99153612 -175.6139698 3.98717594 C-156.38028089 3.88349111 -137.14662608 3.77480006 -117.91299629 3.66066074 C-108.61144298 3.60558041 -99.30988584 3.55214236 -90.00830078 3.50268555 C-81.89309018 3.45953243 -73.77790495 3.41318073 -65.66273391 3.36312145 C-61.37306614 3.33676835 -57.08340258 3.31192629 -52.79370499 3.29092598 C-25.32335871 5.48137047 -25.32335871 5.48137047 0 0 Z " fill="#C2CE7E" transform="translate(704,391)"/>
<path d="M0 0 C0.33 0.66 0.66 1.32 1 2 C18.49 2 35.98 2 54 2 C54.495 2.99 54.495 2.99 55 4 C54.34045319 4.00808685 53.68090637 4.01617371 53.00137329 4.02450562 C46.15598793 4.11035572 39.31089871 4.20985003 32.46582031 4.31738281 C29.90890463 4.3557398 27.35193375 4.39058062 24.79492188 4.421875 C21.12610091 4.46737976 17.45766227 4.5253981 13.7890625 4.5859375 C12.64007477 4.59748871 11.49108704 4.60903992 10.30728149 4.62094116 C8.71585831 4.6507457 8.71585831 4.6507457 7.09228516 4.68115234 C5.68663803 4.70113785 5.68663803 4.70113785 4.25259399 4.7215271 C1.79964849 4.79034466 1.79964849 4.79034466 0 7 C-2.625 7.625 -2.625 7.625 -5 8 C-5.33 7.34 -5.66 6.68 -6 6 C-5.34 5.34 -4.68 4.68 -4 4 C-5.32 3.67 -6.64 3.34 -8 3 C-5.4345406 0.4345406 -3.52313332 0.45953913 0 0 Z " fill="#60C288" transform="translate(488,397)"/>
<path d="M0 0 C1.65 0 3.3 0 5 0 C0.78809533 5.08938482 -4.78803418 6.51633852 -11 8 C-11 8.66 -11 9.32 -11 10 C-16.75 13 -16.75 13 -19 13 C-19.33 14.32 -19.66 15.64 -20 17 C-18.02 17.99 -16.04 18.98 -14 20 C-18.83646298 23.22430866 -21.26939984 23.09242903 -27 23 C-28.04526613 18.03498591 -28.04526613 18.03498591 -27 15 C-23.33347445 12.00065221 -19.26880242 10.01641923 -15 8 C-14.30390625 7.6596875 -13.6078125 7.319375 -12.890625 6.96875 C-10.0316446 5.6572911 -7.16186085 4.76688405 -4.125 4 C-3.09375 3.67 -2.0625 3.34 -1 3 C-0.67 2.01 -0.34 1.02 0 0 Z " fill="#A5D087" transform="translate(523,376)"/>
<path d="M0 0 C1.5 1.375 1.5 1.375 3 3 C3 3.66 3 4.32 3 5 C5.97 4.34 8.94 3.68 12 3 C5.54237166 12.76923262 -1.84594889 16.13580733 -13 19 C-9.37255698 14.96950775 -6.04320462 13.68106821 -1 12 C-1.350625 11.2575 -1.70125 10.515 -2.0625 9.75 C-3.06534401 6.80832424 -3.12878423 5.82196058 -2 3 C-1.34 2.01 -0.68 1.02 0 0 Z " fill="#D4D684" transform="translate(657,302)"/>
<path d="M0 0 C2.79173055 -0.02690104 5.58320348 -0.04679053 8.375 -0.0625 C9.56609375 -0.07506836 9.56609375 -0.07506836 10.78125 -0.08789062 C16.7734375 -0.11328125 16.7734375 -0.11328125 19 1 C19 1.66 19 2.32 19 3 C21.31 3.33 23.62 3.66 26 4 C27.66670026 7.52948291 28.13583456 9.28272326 27 13 C25.4221875 11.824375 25.4221875 11.824375 23.8125 10.625 C20.96158998 8.5886357 18.3324747 7.14005714 15 6 C11.99058007 4.85355431 9.70282088 3.80188059 7 2 C4.67612053 1.60612212 2.34206251 1.26513915 0 1 C0 0.67 0 0.34 0 0 Z " fill="#48B17D" transform="translate(683,400)"/>
<path d="M0 0 C-0.63808594 0.29132813 -1.27617188 0.58265625 -1.93359375 0.8828125 C-4.43885189 2.12567067 -6.74071423 3.34832517 -9 5 C-10.05175552 8.12688428 -10.05175552 8.12688428 -10 11 C-13.00313748 12.50156874 -15.79067522 12.09281204 -19.125 12.0625 C-20.40632812 12.05347656 -21.68765625 12.04445313 -23.0078125 12.03515625 C-24.48894531 12.01775391 -24.48894531 12.01775391 -26 12 C-26 11.34 -26 10.68 -26 10 C-23.19433089 7.95951337 -20.79115962 6.94137814 -17.4375 6 C-14.12217709 5.03554243 -12.62194049 4.11446814 -10 2 C-4.24840764 -1.35509554 -4.24840764 -1.35509554 0 0 Z " fill="#EFD780" transform="translate(538,374)"/>
<path d="M0 0 C1.35351562 0.26296875 1.35351562 0.26296875 2.734375 0.53125 C8.23373758 1.31766439 13.7258179 0.81206317 19.25 0.5 C21.40075912 0.38023024 23.55180148 0.26541369 25.703125 0.15625 C26.64833008 0.10275391 27.59353516 0.04925781 28.56738281 -0.00585938 C31 0 31 0 34 1 C33.67 1.99 33.34 2.98 33 4 C21.8047443 4.24939926 11.0747429 3.66940943 0 2 C0 1.34 0 0.68 0 0 Z " fill="#0A8E7F" transform="translate(463,753)"/>
<path d="M0 0 C-1.69774175 1.32617193 -3.40871665 2.63541303 -5.125 3.9375 C-6.07632812 4.66839844 -7.02765625 5.39929688 -8.0078125 6.15234375 C-11.18246721 8.11267231 -13.28735182 8.84059267 -17 9 C-17.99 8.34 -18.98 7.68 -20 7 C-17.37739925 3.82674642 -14.35249579 2.71265445 -10.5625 1.25 C-9.42941406 0.80140625 -8.29632813 0.3528125 -7.12890625 -0.109375 C-4.10898801 -0.9689772 -2.85271145 -1.14949552 0 0 Z " fill="#40D68F" transform="translate(335,247)"/>
<path d="M0 0 C0.66 0 1.32 0 2 0 C0.80471822 14.50065531 0.80471822 14.50065531 -1 21 C-1.66 21.33 -2.32 21.66 -3 22 C-2.979375 21.113125 -2.95875 20.22625 -2.9375 19.3125 C-2.99307942 16.36679079 -3.38087812 13.86343868 -4 11 C-4 10.01 -4 9.02 -4 8 C-3.34 8 -2.68 8 -2 8 C-2.04125 7.05125 -2.0825 6.1025 -2.125 5.125 C-2 2 -2 2 0 0 Z " fill="#0F9A84" transform="translate(716,576)"/>
<path d="M0 0 C0.33 0.66 0.66 1.32 1 2 C3.8159849 2.46898963 3.8159849 2.46898963 7.0625 2.625 C8.71958984 2.73714844 8.71958984 2.73714844 10.41015625 2.8515625 C11.26480469 2.90054687 12.11945313 2.94953125 13 3 C13 3.33 13 3.66 13 4 C11.84371094 4.07347656 11.84371094 4.07347656 10.6640625 4.1484375 C9.66117187 4.22320312 8.65828125 4.29796875 7.625 4.375 C6.62726563 4.44460938 5.62953125 4.51421875 4.6015625 4.5859375 C1.84491121 4.76363964 1.84491121 4.76363964 0 7 C-2.625 7.625 -2.625 7.625 -5 8 C-5.33 7.34 -5.66 6.68 -6 6 C-5.34 5.34 -4.68 4.68 -4 4 C-5.32 3.67 -6.64 3.34 -8 3 C-5.4345406 0.4345406 -3.52313332 0.45953913 0 0 Z " fill="#52C08F" transform="translate(488,397)"/>
<path d="M0 0 C0.33 1.32 0.66 2.64 1 4 C-1.71401294 5.35700647 -3.84846316 5.1123861 -6.8828125 5.09765625 C-8.04941406 5.09443359 -9.21601562 5.09121094 -10.41796875 5.08789062 C-11.64128906 5.07951172 -12.86460937 5.07113281 -14.125 5.0625 C-15.35605469 5.05798828 -16.58710937 5.05347656 -17.85546875 5.04882812 C-20.90369392 5.0370133 -23.95182314 5.02054028 -27 5 C-27 4.67 -27 4.34 -27 4 C-21.56993784 2.67265147 -16.06602971 2.66552789 -10.50585938 2.48242188 C-9.72919922 2.44826172 -8.95253906 2.41410156 -8.15234375 2.37890625 C-7.1003479 2.34132202 -7.1003479 2.34132202 -6.02709961 2.30297852 C-3.70698062 1.95620414 -2.03552975 1.14182683 0 0 Z " fill="#C7CB74" transform="translate(704,391)"/>
<path d="M0 0 C0.86625 0.350625 1.7325 0.70125 2.625 1.0625 C6.28494441 2.07915123 8.33420785 1.73315843 12 1 C12.99 1.33 13.98 1.66 15 2 C14.67 3.65 14.34 5.3 14 7 C14.99 7 15.98 7 17 7 C16.67 7.66 16.34 8.32 16 9 C14.72740489 8.54658132 13.45698757 8.08704773 12.1875 7.625 C11.47980469 7.36976563 10.77210938 7.11453125 10.04296875 6.8515625 C8 6 8 6 5 4 C3.01200182 3.29835358 1.01301483 2.62627128 -1 2 C-0.67 1.34 -0.34 0.68 0 0 Z " fill="#129783" transform="translate(407,735)"/>
<path d="M0 0 C0.66 0.33 1.32 0.66 2 1 C1.34 2.98 0.68 4.96 0 7 C2.97 7.495 2.97 7.495 6 8 C4 10 4 10 2.0546875 10.1953125 C0.03645833 10.13020833 -1.98177083 10.06510417 -4 10 C-4 7.36 -4 4.72 -4 2 C-2.125 0.9375 -2.125 0.9375 0 0 Z " fill="#8FCC8D" transform="translate(500,389)"/>
<path d="M0 0 C0.99 0 1.98 0 3 0 C3 0.99 3 1.98 3 3 C5.64 3.33 8.28 3.66 11 4 C7.31912647 6.45391569 4.55644412 6.22802759 0.3125 6.125 C-0.7403418 6.11146484 -0.7403418 6.11146484 -1.81445312 6.09765625 C-3.54311525 6.07413704 -5.27160145 6.03826713 -7 6 C-7.33 5.34 -7.66 4.68 -8 4 C-6.865625 3.525625 -5.73125 3.05125 -4.5625 2.5625 C-1.24259834 1.36377917 -1.24259834 1.36377917 0 0 Z " fill="#F8D274" transform="translate(510,388)"/>
<path d="M0 0 C1.08861328 -0.03867187 1.08861328 -0.03867187 2.19921875 -0.078125 C4.8886892 0.33946376 6.27284499 1.50040879 8.3125 3.25 C1.61636804 4.047837 -4.94516581 4.37910853 -11.6875 4.25 C-11.6875 3.26 -11.6875 2.27 -11.6875 1.25 C-7.78725303 0.58612818 -3.95660923 0.13101355 0 0 Z " fill="#088B7F" transform="translate(531.6875,752.75)"/>
<path d="M0 0 C-1.43294498 0.84114171 -2.87154405 1.67265687 -4.3125 2.5 C-5.11300781 2.9640625 -5.91351562 3.428125 -6.73828125 3.90625 C-9 5 -9 5 -12 5 C-12.33 5.99 -12.66 6.98 -13 8 C-14.11375 8.12375 -15.2275 8.2475 -16.375 8.375 C-20.03103677 8.6465813 -20.03103677 8.6465813 -22 11 C-24.125 10.625 -24.125 10.625 -26 10 C-23.13818902 8.09212601 -20.77310042 6.93630889 -17.4375 6 C-14.12217709 5.03554243 -12.62194049 4.11446814 -10 2 C-4.24840764 -1.35509554 -4.24840764 -1.35509554 0 0 Z " fill="#D9D78A" transform="translate(538,374)"/>
<path d="M0 0 C-11.9140625 5.95703125 -11.9140625 5.95703125 -14.01269531 6.99853516 C-15.82314111 7.91087529 -17.6121784 8.86538772 -19.3984375 9.82421875 C-20.68621094 10.40623047 -20.68621094 10.40623047 -22 11 C-22.66 10.67 -23.32 10.34 -24 10 C-19.19437343 6.15549874 -13.84582954 3.32675258 -8.3125 0.6875 C-7.58675781 0.34074219 -6.86101563 -0.00601562 -6.11328125 -0.36328125 C-3.63836195 -1.10895934 -2.43696695 -0.70423918 0 0 Z " fill="#95CC8E" transform="translate(600,341)"/>
<path d="M0 0 C0.33 0.66 0.66 1.32 1 2 C0.67 2.99 0.34 3.98 0 5 C-1.27875 5.144375 -2.5575 5.28875 -3.875 5.4375 C-6.25692894 5.70642746 -7.84452691 5.92226346 -10 7 C-10 6.01 -10 5.02 -10 4 C-10.66 3.34 -11.32 2.68 -12 2 C-8.04 1.34 -4.08 0.68 0 0 Z " fill="#16A58B" transform="translate(538,626)"/>
<path d="M0 0 C0.96164062 0.09796875 1.92328125 0.1959375 2.9140625 0.296875 C3.87054688 0.38453125 4.82703125 0.4721875 5.8125 0.5625 C8.42559132 1.0267168 10.25630497 1.72698676 12.5390625 3.046875 C12.5390625 3.706875 12.5390625 4.366875 12.5390625 5.046875 C11.2190625 5.046875 9.8990625 5.046875 8.5390625 5.046875 C8.5390625 4.386875 8.5390625 3.726875 8.5390625 3.046875 C6.71375 3.35625 6.71375 3.35625 4.8515625 3.671875 C1.19099477 4.14651344 -1.13705262 3.81268884 -4.4609375 2.046875 C-2.4609375 0.046875 -2.4609375 0.046875 0 0 Z " fill="#1AA486" transform="translate(490.4609375,593.953125)"/>
<path d="M0 0 C2 0 2 0 3.625 1.375 C5 3 5 3 5 5 C5.99 5.33 6.98 5.66 8 6 C7.67 7.65 7.34 9.3 7 11 C5 9.625 5 9.625 3 8 C3 7.34 3 6.68 3 6 C2.01 6 1.02 6 0 6 C-1.125 2.25 -1.125 2.25 0 0 Z " fill="#15A787" transform="translate(465,576)"/>
<path d="M0 0 C2.79173055 -0.02690104 5.58320348 -0.04679053 8.375 -0.0625 C9.56609375 -0.07506836 9.56609375 -0.07506836 10.78125 -0.08789062 C16.7734375 -0.11328125 16.7734375 -0.11328125 19 1 C19 1.66 19 2.32 19 3 C17.37675914 3.22162329 15.751279 3.42689803 14.125 3.625 C12.76761719 3.79902344 12.76761719 3.79902344 11.3828125 3.9765625 C10.59648438 3.98429687 9.81015625 3.99203125 9 4 C8.34 3.34 7.68 2.68 7 2 C4.67724823 1.59952556 2.34260643 1.2602896 0 1 C0 0.67 0 0.34 0 0 Z " fill="#51B47B" transform="translate(683,400)"/>
<path d="M0 0 C3.3 0.33 6.6 0.66 10 1 C9.39816251 3.02045442 8.72693904 5.02111039 8 7 C7.01 7.495 7.01 7.495 6 8 C5.67 7.34 5.34 6.68 5 6 C3.02477154 4.95191959 1.02518491 3.9479589 -1 3 C-0.67 2.01 -0.34 1.02 0 0 Z " fill="#109C86" transform="translate(383,721)"/>
<path d="M0 0 C6.625 -0.125 6.625 -0.125 10 1 C9.67 1.99 9.34 2.98 9 4 C3.72 3.67 -1.56 3.34 -7 3 C-7 2.67 -7 2.34 -7 2 C-4.69 2 -2.38 2 0 2 C0 1.34 0 0.68 0 0 Z " fill="#0A9688" transform="translate(487,753)"/>
<path d="M0 0 C1.134375 0.020625 2.26875 0.04125 3.4375 0.0625 C0.61227391 4.73498931 -2.24010044 7.72246398 -6.5625 11.0625 C-6.2325 10.52625 -5.9025 9.99 -5.5625 9.4375 C-4.33787082 6.52900569 -4.49301908 4.18914129 -4.5625 1.0625 C-3.5625 0.0625 -3.5625 0.0625 0 0 Z " fill="#058E84" transform="translate(668.5625,679.9375)"/>
<path d="M0 0 C0.66 0.33 1.32 0.66 2 1 C-0.14472573 3.14472573 -2.14612519 3.99959435 -4.921875 5.13671875 C-8.01175308 6.42029592 -11.04206653 7.83344537 -14.08203125 9.23046875 C-16 10 -16 10 -18 10 C-17.03301579 7.50835285 -16.52912611 6.25971363 -14.08203125 5.05859375 C-13.33308594 4.85363281 -12.58414063 4.64867187 -11.8125 4.4375 C-8.77137171 3.54968674 -5.93656106 2.58438549 -3.0625 1.25 C-2.051875 0.8375 -1.04125 0.425 0 0 Z " fill="#A6CC88" transform="translate(652,314)"/>
<path d="M0 0 C-0.99 0.495 -0.99 0.495 -2 1 C-2 1.66 -2 2.32 -2 3 C-7.17578125 6.22265625 -7.17578125 6.22265625 -9 7 C-9.99 6.67 -10.98 6.34 -12 6 C-11 3 -11 3 -8.25 1.3125 C-5.14979295 0.06049331 -3.28328088 -0.28970125 0 0 Z " fill="#2FC491" transform="translate(482,404)"/>
<path d="M0 0 C1.65 0 3.3 0 5 0 C2.07138501 3.53874311 -0.68149667 4.8428888 -4.90625 6.26953125 C-6.94756184 6.98170534 -8.85589267 7.83387665 -10.8125 8.75 C-14 10 -14 10 -17 9 C-8.5116856 5.03493704 -8.5116856 5.03493704 -4 3.9375 C-3.01 3.628125 -2.02 3.31875 -1 3 C-0.67 2.01 -0.34 1.02 0 0 Z " fill="#8FC88F" transform="translate(523,376)"/>
<path d="M0 0 C-3.62424457 2.21592854 -7.29474938 4.28753065 -11.0625 6.25 C-12.59583984 7.06210937 -12.59583984 7.06210937 -14.16015625 7.890625 C-17.09530455 9.03723039 -18.14441045 9.17784509 -21 8 C-18.77208002 6.87247351 -16.54274113 5.74791861 -14.3125 4.625 C-13.68666016 4.30789063 -13.06082031 3.99078125 -12.41601562 3.6640625 C-2.56972095 -1.28486048 -2.56972095 -1.28486048 0 0 Z " fill="#CBD58F" transform="translate(615,335)"/>
<path d="M0 0 C-3.75 3 -3.75 3 -6 3 C-6 3.66 -6 4.32 -6 5 C-12.625 8.125 -12.625 8.125 -16 7 C-11.11439561 2.83286684 -6.66022752 -0.58766713 0 0 Z " fill="#9BCE8F" transform="translate(576,352)"/>
<path d="M0 0 C-3.87024733 3.38646642 -8.10132476 6.32953125 -13 8 C-13.99 7.67 -14.98 7.34 -16 7 C-15.34 7 -14.68 7 -14 7 C-14 6.34 -14 5.68 -14 5 C-12.61217515 4.1533966 -11.21430603 3.32324661 -9.8125 2.5 C-9.03519531 2.0359375 -8.25789062 1.571875 -7.45703125 1.09375 C-4.75896614 -0.10729647 -2.9193018 -0.20741043 0 0 Z " fill="#99CC8E" transform="translate(544,368)"/>
<path d="M0 0 C2.0625 0.4375 2.0625 0.4375 4 1 C2.75747321 1.84443568 1.5056114 2.6751458 0.25 3.5 C-0.44609375 3.9640625 -1.1421875 4.428125 -1.859375 4.90625 C-4 6 -4 6 -8 6 C-8 6.66 -8 7.32 -8 8 C-10.31 8.66 -12.62 9.32 -15 10 C-11.73922109 5.99813497 -7.71280293 4.21117913 -3.14453125 2.05078125 C-1.06978372 1.17773411 -1.06978372 1.17773411 0 0 Z " fill="#D8D88C" transform="translate(553,363)"/>
<path d="M0 0 C-0.68707031 0.33773438 -1.37414062 0.67546875 -2.08203125 1.0234375 C-2.98308594 1.46945312 -3.88414062 1.91546875 -4.8125 2.375 C-6.15248047 3.03628906 -6.15248047 3.03628906 -7.51953125 3.7109375 C-10.14556381 5.01866905 -10.14556381 5.01866905 -13 7 C-13.99 7 -14.98 7 -16 7 C-15 4 -15 4 -13.00390625 2.8671875 C-12.19824219 2.53976562 -11.39257812 2.21234375 -10.5625 1.875 C-9.75941406 1.54242188 -8.95632813 1.20984375 -8.12890625 0.8671875 C-7.07509766 0.43792969 -7.07509766 0.43792969 -6 0 C-3.50907189 -1.24546405 -2.58919267 -0.7767578 0 0 Z " fill="#9DCC91" transform="translate(560,361)"/>
<path d="M0 0 C0.66 0.33 1.32 0.66 2 1 C-1.95623632 7.70459519 -1.95623632 7.70459519 -6.3125 8.9375 C-7.199375 8.958125 -8.08625 8.97875 -9 9 C-7.8759417 5.74023094 -7.07187022 5.03813522 -3.9375 3.375 C-2.968125 2.92125 -1.99875 2.4675 -1 2 C-0.67 1.34 -0.34 0.68 0 0 Z " fill="#42D892" transform="translate(311,255)"/>
<path d="M0 0 C1.4540625 0.0309375 1.4540625 0.0309375 2.9375 0.0625 C0.04350531 2.40461663 -2.73405428 3.93112171 -6.1875 5.3125 C-7.49074219 5.84617187 -7.49074219 5.84617187 -8.8203125 6.390625 C-11.0625 7.0625 -11.0625 7.0625 -13.0625 6.0625 C-10.20074239 3.7306975 -7.50517513 2.36513383 -4.0625 1.0625 C-3.0625 0.0625 -3.0625 0.0625 0 0 Z " fill="#DCD78B" transform="translate(657.0625,313.9375)"/>
<path d="M0 0 C-1.6209213 1.17232685 -3.24686833 2.3377077 -4.875 3.5 C-5.77992188 4.1496875 -6.68484375 4.799375 -7.6171875 5.46875 C-10 7 -10 7 -12 7 C-12 6.34 -12 5.68 -12 5 C-11.01 5 -10.02 5 -9 5 C-9 3.68 -9 2.36 -9 1 C-2.25 -1.125 -2.25 -1.125 0 0 Z " fill="#0A877D" transform="translate(631,719)"/>
<path d="M0 0 C0 0.66 0 1.32 0 2 C-1.96466413 3.06775224 -3.96855359 4.06553465 -6 5 C-6.66 4.67 -7.32 4.34 -8 4 C-7.1875 2.0625 -7.1875 2.0625 -6 0 C-3 -1 -3 -1 0 0 Z " fill="#0FA58C" transform="translate(576,604)"/>
<path d="M0 0 C0 0.33 0 0.66 0 1 C-1.15628906 1.07347656 -1.15628906 1.07347656 -2.3359375 1.1484375 C-3.33882813 1.22320312 -4.34171875 1.29796875 -5.375 1.375 C-6.37273437 1.44460938 -7.37046875 1.51421875 -8.3984375 1.5859375 C-11.15508879 1.76363964 -11.15508879 1.76363964 -13 4 C-15.625 4.625 -15.625 4.625 -18 5 C-18.33 4.34 -18.66 3.68 -19 3 C-12.68284595 -0.44572039 -7.09629025 -0.31461385 0 0 Z " fill="#3CBE90" transform="translate(501,400)"/>
<path d="M0 0 C0.66 0.66 1.32 1.32 2 2 C1.625 4.625 1.625 4.625 1 7 C-0.32 7 -1.64 7 -3 7 C-2.38722388 4.03824877 -1.74627478 2.61941217 0 0 Z " fill="#A8D191" transform="translate(657,302)"/>
<path d="M0 0 C0.66 0.66 1.32 1.32 2 2 C1.6442194 5.37991574 0.64284201 8.04288438 -1 11 C-1.9991932 7.89139894 -1.83036989 6.11388708 -1 3 C-1.33 2.34 -1.66 1.68 -2 1 C-1.34 0.67 -0.68 0.34 0 0 Z " fill="#0F8A7E" transform="translate(690,647)"/>
<path d="M0 0 C4.455 0.99 4.455 0.99 9 2 C5.55549263 4.29633824 3.06187717 4.54016485 -1 5 C-0.67 3.35 -0.34 1.7 0 0 Z " fill="#0C8882" transform="translate(560,746)"/>
<path d="M0 0 C1.32 0 2.64 0 4 0 C3.67 1.32 3.34 2.64 3 4 C2.01 4 1.02 4 0 4 C-0.33 3.01 -0.66 2.02 -1 1 C-0.67 0.67 -0.34 0.34 0 0 Z M-5 3 C-4.01 3.33 -3.02 3.66 -2 4 C-3.98 4.99 -3.98 4.99 -6 6 C-5.67 5.01 -5.34 4.02 -5 3 Z " fill="#10A588" transform="translate(564,611)"/>
<path d="M0 0 C0.99 0 1.98 0 3 0 C2.50351065 4.46840411 2.31012244 5.68987756 -1 9 C-0.67 6.03 -0.34 3.06 0 0 Z " fill="#0E937B" transform="translate(708,608)"/>
<path d="M0 0 C0 0.66 0 1.32 0 2 C-6.45 6.09326923 -6.45 6.09326923 -9.234375 5.62109375 C-9.81703125 5.41613281 -10.3996875 5.21117187 -11 5 C-9.54462432 4.16151196 -8.08559627 3.32936066 -6.625 2.5 C-5.81289063 2.0359375 -5.00078125 1.571875 -4.1640625 1.09375 C-2 0 -2 0 0 0 Z " fill="#D6D58D" transform="translate(594,344)"/>
<path d="M0 0 C0.66 0.66 1.32 1.32 2 2 C1.875 3.9375 1.875 3.9375 1 6 C-1.0625 7.75 -1.0625 7.75 -3 9 C-2.44271087 5.65626525 -1.64826111 2.96687001 0 0 Z " fill="#BFD48A" transform="translate(659,305)"/>
<path d="M0 0 C0.66 0 1.32 0 2 0 C0.4169423 4.2742558 -2.50568404 6.26531794 -6 9 C-4.4722133 5.56247993 -2.49818944 2.81046312 0 0 Z " fill="#118980" transform="translate(668,682)"/>
<path d="M0 0 C-1.20703125 1.51953125 -1.20703125 1.51953125 -3 3 C-5.26171875 3.07421875 -5.26171875 3.07421875 -7.6875 2.6875 C-8.89986328 2.50767578 -8.89986328 2.50767578 -10.13671875 2.32421875 C-10.75160156 2.21722656 -11.36648438 2.11023438 -12 2 C-12 1.67 -12 1.34 -12 1 C-10.56496445 0.63597631 -9.12683494 0.28413409 -7.6875 -0.0625 C-6.88699219 -0.25972656 -6.08648438 -0.45695313 -5.26171875 -0.66015625 C-3 -1 -3 -1 0 0 Z " fill="#14A084" transform="translate(666,533)"/>
<path d="M0 0 C7.75 -0.125 7.75 -0.125 10 1 C10 1.66 10 2.32 10 3 C3.375 2.25 3.375 2.25 0 0 Z " fill="#67B775" transform="translate(692,400)"/>
<path d="M0 0 C0 0.66 0 1.32 0 2 C-2.95481492 4.74375671 -3.77471908 5 -8 5 C-8 4.34 -8 3.68 -8 3 C-2.25 0 -2.25 0 0 0 Z " fill="#E2DA84" transform="translate(512,386)"/>
<path d="M0 0 C-0.66 0 -1.32 0 -2 0 C-2.33 0.99 -2.66 1.98 -3 3 C-4.65 3.33 -6.3 3.66 -8 4 C-7.1875 2.0625 -7.1875 2.0625 -6 0 C-3 -1 -3 -1 0 0 Z " fill="#93CE8E" transform="translate(642,320)"/>
<path d="M0 0 C0.99 0.33 1.98 0.66 3 1 C1.95125002 3.62187494 1.35068687 4.79371361 -1.125 6.25 C-1.74375 6.4975 -2.3625 6.745 -3 7 C-2.42655063 4.13275314 -2.1385485 3.1385485 0 1 C0 0.67 0 0.34 0 0 Z " fill="#0A887F" transform="translate(659,690)"/>
<path d="M0 0 C1.65 0 3.3 0 5 0 C2.47211993 2.79872437 0.79588866 4.45773019 -3 5 C-3 4.34 -3 3.68 -3 3 C-2.34 3 -1.68 3 -1 3 C-0.67 2.01 -0.34 1.02 0 0 Z " fill="#A5CE90" transform="translate(523,376)"/>
<path d="M0 0 C-0.33 1.32 -0.66 2.64 -1 4 C-2.32 4 -3.64 4 -5 4 C-5.33 3.01 -5.66 2.02 -6 1 C-3 0 -3 0 0 0 Z " fill="#79CEA8" transform="translate(553,359)"/>
<path d="M0 0 C2.31 0 4.62 0 7 0 C7.33 0.66 7.66 1.32 8 2 C5.6875 2.6875 5.6875 2.6875 3 3 C1.1875 1.5625 1.1875 1.5625 0 0 Z " fill="#0B8E84" transform="translate(586,738)"/>
<path d="M0 0 C1.32 0 2.64 0 4 0 C3.67 1.65 3.34 3.3 3 5 C2.01 4.67 1.02 4.34 0 4 C0 2.68 0 1.36 0 0 Z " fill="#17A68B" transform="translate(332,679)"/>
<path d="M0 0 C-1.28913487 0.67154933 -2.58140204 1.33708859 -3.875 2 C-4.59429688 2.37125 -5.31359375 2.7425 -6.0546875 3.125 C-8 4 -8 4 -10 4 C-9.67 3.01 -9.34 2.02 -9 1 C-3.79245283 -1.26415094 -3.79245283 -1.26415094 0 0 Z " fill="#A2D28F" transform="translate(634,325)"/>
<path d="M0 0 C0.66 0.33 1.32 0.66 2 1 C1.67 2.65 1.34 4.3 1 6 C0.01 6.33 -0.98 6.66 -2 7 C-1.125 1.125 -1.125 1.125 0 0 Z " fill="#46DB94" transform="translate(286,286)"/>
</svg>
